<svg width="52" height="51" viewBox="0 0 52 51" xmlns="http://www.w3.org/2000/svg"><title>Shape</title><path d="M26 0C4.055 0 0 6.536 0 24.677 0 40.36 4.023 51 26 51s26-10.667 26-26.323C52 8.514 48.77 1.547 32.487.235c-.57 7.696-1.793 14.432-3.476 20.22-.843 2.9-1.75 5.38-2.66 7.443-.557 1.26-1 2.113-1.268 2.565a1.614 1.614 0 0 1-2.215.568l-5.816-3.463a1.657 1.657 0 0 1-.576-2.252 1.614 1.614 0 0 1 2.225-.584l4.322 2.57s.066-.078.36-.745c.853-1.93 1.71-4.27 2.51-7.03 1.616-5.55 2.795-12.035 3.35-19.472A95.185 95.185 0 0 0 26 0zm10.563 17.274c1.346 0 2.437-1.105 2.437-2.468 0-1.362-1.09-2.467-2.438-2.467-1.346 0-2.437 1.104-2.437 2.466 0 1.363 1.09 2.468 2.438 2.468zm-21.126 0c1.347 0 2.438-1.105 2.438-2.468 0-1.362-1.09-2.467-2.438-2.467-1.346 0-2.437 1.104-2.437 2.466 0 1.363 1.09 2.468 2.438 2.468zm-.55 19.298c.134.208.365.51.703.873.532.574 1.188 1.14 1.975 1.662 2.196 1.46 4.996 2.326 8.42 2.326 3.424 0 6.227-.86 8.43-2.308.79-.52 1.447-1.08 1.983-1.65.34-.36.573-.66.708-.866.495-.76.29-1.78-.46-2.28a1.613 1.613 0 0 0-2.252.465l-.05.066a4.84 4.84 0 0 1-.297.345 7.84 7.84 0 0 1-1.403 1.16c-1.68 1.106-3.87 1.778-6.658 1.778-2.784 0-4.966-.675-6.637-1.786a7.76 7.76 0 0 1-1.393-1.166c-.12-.13-.22-.245-.295-.345l-.05-.066a1.613 1.613 0 0 0-2.247-.484 1.658 1.658 0 0 0-.478 2.276z" fill="#000" fill-rule="evenodd"/></svg>